<svg id="home" xmlns="http://www.w3.org/2000/svg" viewBox="0 0 200 181.83"><defs><style>.cls-1{fill:#65686c;}</style></defs><path class="cls-1" d="M853.45,578.66l-8.34.07a2.28,2.28,0,0,0-2.24,2l-8.19,74.63a13.1,13.1,0,0,1-13,11.66h-55.3V615.52a4,4,0,0,0-4-4h-5.65a4,4,0,0,0-4,4v51.54H697.7a13.1,13.1,0,0,1-13.06-11.93l-6.56-74.36a2.29,2.29,0,0,0-2.19-2.08l-11.45-.39a5.61,5.61,0,0,1-3.52-9.8l90.65-80.26a12,12,0,0,1,15.91,0l89.67,80.6A5.61,5.61,0,0,1,853.45,578.66Z" transform="translate(-659.02 -485.23)"/></svg>