<svg id="setting" xmlns="http://www.w3.org/2000/svg" viewBox="0 0 199.99 200"><defs><style>.cls-1{fill:#65686c;}</style></defs><path class="cls-1" d="M1513.79,1079.71h-3a5.59,5.59,0,0,1-5.37-4.07,83.29,83.29,0,0,0-7.57-18.26,5.62,5.62,0,0,1,.91-6.7l2.15-2.15a10.76,10.76,0,0,0,0-15.15l-11.32-11.31a10.73,10.73,0,0,0-15.14,0l-2.15,2.14a5.64,5.64,0,0,1-6.72.9,83.8,83.8,0,0,0-18.24-7.56,5.6,5.6,0,0,1-4.09-5.38v-3a10.72,10.72,0,0,0-10.71-10.72h-16a10.73,10.73,0,0,0-10.72,10.72v3a5.61,5.61,0,0,1-4.09,5.38,84.16,84.16,0,0,0-18.26,7.56,5.61,5.61,0,0,1-6.7-.9l-2.15-2.15a10.75,10.75,0,0,0-15.15,0l-11.3,11.31a10.72,10.72,0,0,0,0,15.15l2.14,2.15a5.62,5.62,0,0,1,.91,6.7,83.26,83.26,0,0,0-7.56,18.26,5.61,5.61,0,0,1-5.38,4.07h-3a10.74,10.74,0,0,0-10.71,10.72v16a10.74,10.74,0,0,0,10.72,10.73h3a5.62,5.62,0,0,1,5.38,4.08,83.18,83.18,0,0,0,7.56,18.25,5.64,5.64,0,0,1-.91,6.71l-2.14,2.15a10.72,10.72,0,0,0,0,15.15l11.3,11.3a10.72,10.72,0,0,0,15.15,0l2.15-2.13a5.6,5.6,0,0,1,6.7-.91,83.67,83.67,0,0,0,18.26,7.56,5.63,5.63,0,0,1,4.09,5.38v3a10.72,10.72,0,0,0,10.7,10.72h16a10.74,10.74,0,0,0,10.71-10.72v-3a5.62,5.62,0,0,1,4.09-5.38,82.9,82.9,0,0,0,18.24-7.56,5.62,5.62,0,0,1,6.72.91l2.15,2.14a10.72,10.72,0,0,0,15.14,0l11.32-11.3a10.76,10.76,0,0,0,0-15.15l-2.15-2.15a5.64,5.64,0,0,1-.91-6.71,83.22,83.22,0,0,0,7.57-18.25,5.6,5.6,0,0,1,5.37-4.08h3a10.73,10.73,0,0,0,10.72-10.72v-16A10.74,10.74,0,0,0,1513.79,1079.71Zm-89.28,55.88a37.16,37.16,0,1,1,37.16-37.16A37.16,37.16,0,0,1,1424.51,1135.59Z" transform="translate(-1324.52 -998.43)"/></svg>