<svg id="shop" xmlns="http://www.w3.org/2000/svg" viewBox="0 0 187 197.29"><defs><style>.cls-1{fill:#65686c;}</style></defs><g id="Layer_12" data-name="Layer 12"><path class="cls-1" d="M852.49,1170.74,848,1079a36.91,36.91,0,0,0-36.87-35.09h-2.65c0,.42,0,.82,0,1.24V1072a11.33,11.33,0,0,1-22.66,0v-26.81c0-.42,0-.83,0-1.24H728.68c0,.41,0,.82,0,1.24V1072a11.33,11.33,0,1,1-22.66,0v-26.81c0-.41,0-.81,0-1.22A36.9,36.9,0,0,0,670.1,1079l-4.55,91.74a25.09,25.09,0,0,0,25.05,26.33H827.45A25.09,25.09,0,0,0,852.49,1170.74Zm-133.86-52.28a9.24,9.24,0,1,1,9.24-9.23A9.23,9.23,0,0,1,718.63,1118.46Zm78.24,0a9.24,9.24,0,1,1,9.23-9.23A9.24,9.24,0,0,1,796.87,1118.46Z" transform="translate(-665.52 -999.78)"/><path class="cls-1" d="M796.79,1077.19a4,4,0,0,1-4-4v-34.41c0-17.09-16-31-35.77-31s-35.77,13.91-35.77,31v34.41a4,4,0,0,1-8,0v-34.41c0-21.5,19.63-39,43.77-39s43.77,17.5,43.77,39v34.41A4,4,0,0,1,796.79,1077.19Z" transform="translate(-665.52 -999.78)"/></g></svg>