<svg id="wallet" xmlns="http://www.w3.org/2000/svg" viewBox="0 0 198.04 179.05"><defs><style>.cls-1{fill:#65686c;}</style></defs><path class="cls-1" d="M1769.82,504.72v5.07h-91a40,40,0,0,0-30.08,13.77V504.72c0-10,7.82-18.1,17.47-18.1h86.19C1762,486.62,1769.82,494.72,1769.82,504.72Z" transform="translate(-1644.23 -486.62)"/><path class="cls-1" d="M1842.27,577.87v28.39a6.39,6.39,0,0,1-6.4,6.39h-32.55a20,20,0,0,1-20-20v-1.11a20,20,0,0,1,20-20h32.55A6.39,6.39,0,0,1,1842.27,577.87Z" transform="translate(-1644.23 -486.62)"/><path class="cls-1" d="M1802.69,563.58h19V552.89a35.57,35.57,0,0,0-35.58-35.58H1679.86a35.61,35.61,0,0,0-31.17,18.34h0a35.29,35.29,0,0,0-4.46,17.23V630a35.64,35.64,0,0,0,35.63,35.63H1786A35.64,35.64,0,0,0,1821.66,630v-9.5h-19a27.93,27.93,0,0,1-27.9-27.89v-1.18A27.93,27.93,0,0,1,1802.69,563.58Zm-57.07,6.87h-72.35a3.81,3.81,0,0,1,0-7.61h72.35a3.81,3.81,0,1,1,0,7.61Z" transform="translate(-1644.23 -486.62)"/></svg>